<?xml version="1.0" standalone="no"?><svg xmlns="http://www.w3.org/2000/svg" viewBox="0 0 1440 320"><path fill="#535CA1" fill-opacity="1" d="M0,32L30,37.3C60,43,120,53,180,69.3C240,85,300,107,360,96C420,85,480,43,540,48C600,53,660,107,720,138.7C780,171,840,181,900,165.3C960,149,1020,107,1080,85.3C1140,64,1200,64,1260,74.7C1320,85,1380,107,1410,117.3L1440,128L1440,0L1410,0C1380,0,1320,0,1260,0C1200,0,1140,0,1080,0C1020,0,960,0,900,0C840,0,780,0,720,0C660,0,600,0,540,0C480,0,420,0,360,0C300,0,240,0,180,0C120,0,60,0,30,0L0,0Z"></path></svg>